<?xml version="1.0" encoding="UTF-8" standalone="no"?>
<!DOCTYPE svg PUBLIC "-//W3C//DTD SVG 20010904//EN"
"http://www.w3.org/TR/2001/REC-SVG-20010904/DTD/svg10.dtd">
<!-- Created with Sodipodi ("http://www.sodipodi.com/") -->
<svg
   xmlns="http://www.w3.org/2000/svg"
   xmlns:sodipodi="http://sodipodi.sourceforge.net/DTD/sodipodi-0.dtd"
   xmlns:xlink="http://www.w3.org/1999/xlink"
   id="svg609"
   sodipodi:version="0.34"
   width="210mm"
   height="297mm"
   xml:space="preserve"
   sodipodi:docbase="graphics/"
   sodipodi:docname="graphics/tool-acc-2sharp.svg"><defs
   id="defs611" /><sodipodi:namedview
   id="base" /><path
   style="font-size:12;fill:#3a0039;fill-rule:evenodd;stroke:#000000;stroke-width:1.900678;"
   d="M 333.7473 762.5103 C 283.4838 756.5092 233.2204 757.7095 182.9569 762.5103 C 190.1723 693.9729 191.3865 630.2363 186.5997 556.8981 C 237.284 542.488 339.5776 538.8798 338.6527 513.6678 C 335.522 485.1051 238.7745 487.748 188.8354 474.788 C 192.2283 401.9917 189.62 332.796 181.0107 259.9997 C 234.7442 264.5316 278.8759 265.4626 335.0099 266.394 C 344.0089 339.4382 339.8057 485.6956 362.007 485.5268 C 380.9827 486.2311 396.3578 340.5093 400.9309 268.0006 C 450.0074 268.7009 501.4844 267.0006 551.7611 259.2994 C 531.7471 337.1255 529.7362 414.9515 531.326 492.7776 C 479.6702 489.9058 384.8067 493.035 383.5598 516.5679 C 385.8123 543.1589 476.8808 562.5488 523.5412 578.338 C 521.7569 639.2453 527.1739 700.1526 536.1915 761.06 C 484.9091 753.142 440.8279 752.4252 393.1461 762.5103 C 393.8927 692.1685 395.8394 551.0141 362.9801 547.8843 C 332.8322 548.6137 343.4915 690.9683 333.7473 762.5103 z "
   id="path643"
   sodipodi:nodetypes="ccccccccccccccccc" /></svg>
