<?xml version="1.0" encoding="UTF-8" standalone="no"?>
<!-- Created with Inkscape (http://www.inkscape.org/) -->

<svg
   xmlns:dc="http://purl.org/dc/elements/1.1/"
   xmlns:cc="http://creativecommons.org/ns#"
   xmlns:rdf="http://www.w3.org/1999/02/22-rdf-syntax-ns#"
   xmlns:svg="http://www.w3.org/2000/svg"
   xmlns="http://www.w3.org/2000/svg"
   xmlns:sodipodi="http://sodipodi.sourceforge.net/DTD/sodipodi-0.dtd"
   xmlns:inkscape="http://www.inkscape.org/namespaces/inkscape"
   width="24"
   height="24"
   id="svg2985"
   version="1.1"
   inkscape:version="0.48.0 r9654"
   sodipodi:docname="note-1.svg">
  <defs
     id="defs2987" />
  <sodipodi:namedview
     id="base"
     pagecolor="#ffffff"
     bordercolor="#666666"
     borderopacity="1.0"
     inkscape:pageopacity="0.0"
     inkscape:pageshadow="2"
     inkscape:zoom="19.79899"
     inkscape:cx="12.634555"
     inkscape:cy="9.8578644"
     inkscape:current-layer="layer1"
     showgrid="true"
     inkscape:grid-bbox="true"
     inkscape:document-units="px"
     inkscape:window-width="1280"
     inkscape:window-height="746"
     inkscape:window-x="0"
     inkscape:window-y="24"
     inkscape:window-maximized="1"
     objecttolerance="1"
     gridtolerance="1"
     guidetolerance="1">
    <inkscape:grid
       type="xygrid"
       id="grid3059"
       empspacing="5"
       visible="true"
       enabled="true"
       snapvisiblegridlinesonly="true" />
  </sodipodi:namedview>
  <metadata
     id="metadata2990">
    <rdf:RDF>
      <cc:Work
         rdf:about="">
        <dc:format>image/svg+xml</dc:format>
        <dc:type
           rdf:resource="http://purl.org/dc/dcmitype/StillImage" />
        <dc:title />
      </cc:Work>
    </rdf:RDF>
  </metadata>
  <g
     id="layer1"
     inkscape:label="Layer 1"
     inkscape:groupmode="layer"
     transform="translate(0,-23.999983)">
    <path
       style="fill:#000000;fill-rule:evenodd;stroke:#000000;stroke-width:0.48738694px;stroke-linecap:butt;stroke-linejoin:miter;stroke-opacity:1"
       d="m 11.510504,38.246799 c -0.23171,0.01399 -0.452682,0.04732 -0.659665,0.117031 0.399439,-0.04788 0.815154,-0.06575 1.236872,-0.07802 -0.20235,-0.02877 -0.387687,-0.05045 -0.577207,-0.03901 z m 0.577207,0.03901 c 0.13204,0.01878 0.275961,0.04117 0.412288,0.07802 1.841306,0.497568 3.339551,2.470567 3.339551,4.427674 0,1.957107 -1.498245,3.150273 -3.339551,2.652704 -1.841304,-0.49757 -3.3395496,-2.490073 -3.3395496,-4.44718 0,-1.318661 0.6850441,-2.294613 1.6903896,-2.6332 -3.2135616,0.385184 -5.6071455,1.871747 -5.6071455,3.647469 0,2.0683 3.2487587,3.744994 7.2563055,3.744994 4.007548,0 7.256308,-1.676694 7.256308,-3.744994 0,-2.0683 -3.24876,-3.744994 -7.256308,-3.744994 -0.139236,0 -0.274988,0.01551 -0.412288,0.01951 z"
       id="path2993"
       inkscape:connector-curvature="0" />
  </g>
</svg>
