/* XPM */
static char * solfege_xpm[] = {
"32 32 91 1",
" 	c None",
".	c #000000",
"+	c #0A090D",
"@	c #2E293B",
"#	c #363048",
"$	c #0D0B12",
"%	c #060509",
"&	c #48425B",
"*	c #695E89",
"=	c #322C44",
"-	c #08060B",
";	c #100E16",
">	c #5B5374",
",	c #645A84",
"'	c #4A4264",
")	c #60577C",
"!	c #38314E",
"~	c #191622",
"{	c #584F78",
"]	c #1D1A2A",
"^	c #4C436A",
"/	c #2F2A40",
"(	c #5C527B",
"_	c #453C61",
":	c #483F66",
"<	c #433B5C",
"[	c #231E32",
"}	c #29253B",
"|	c #584E75",
"1	c #13111B",
"2	c #161421",
"3	c #50466E",
"4	c #18161E",
"5	c #24212E",
"6	c #544B73",
"7	c #544D6B",
"8	c #867BA9",
"9	c #8177A4",
"0	c #514A67",
"a	c #3E3658",
"b	c #454051",
"c	c #58506D",
"d	c #6C628B",
"e	c #48474C",
"f	c #ACACAC",
"g	c #444249",
"h	c #A4A4A4",
"i	c #626263",
"j	c #3C3A42",
"k	c #2E2E2E",
"l	c #131215",
"m	c #D5D5D5",
"n	c #2E2C33",
"o	c #605680",
"p	c #3C3C3E",
"q	c #312F38",
"r	c #222222",
"s	c #343339",
"t	c #3B3352",
"u	c #1B1925",
"v	c #696969",
"w	c #DADADB",
"x	c #424047",
"y	c #707070",
"z	c #4C4C4C",
"A	c #ECECEC",
"B	c #4A4557",
"C	c #C5C5C5",
"D	c #E4E4E4",
"E	c #FDFDFD",
"F	c #9F9EA0",
"G	c #F4F4F4",
"H	c #4F4963",
"I	c #756B95",
"J	c #353143",
"K	c #656468",
"L	c #635B7C",
"M	c #47415A",
"N	c #7E73A0",
"O	c #796E9A",
"P	c #393542",
"Q	c #59585C",
"R	c #716790",
"S	c #858486",
"T	c #9B9B9C",
"U	c #BBBBBB",
"V	c #CCCCCC",
"W	c #252035",
"X	c #2B2737",
"Y	c #7D7C7F",
"Z	c #525256",
"                                ",
"                   ..           ",
"                  ..+.          ",
"                  .@#$.         ",
"                  %&*=-.        ",
"                  ;>,'#-.       ",
"                  ;,).'!+.      ",
"                 .~,{-]^!-.     ",
"                 ./('-+_:!%.    ",
"                 +<(#.%[::}%    ",
"                 $||]..;:::$.   ",
"                 1(|;. $:::2.   ",
"          ...... ~|3+. +_:_[.   ",
"     ..$4]5-+-.../6<+. +_::[.   ",
"    ..%789>0,>]+$a3=...1_::1.   ",
"   ..4bc8defe7,=.3^]..$a::_+.   ",
"   .1ghi>jklmno(!3^$..@:::[%.   ",
"   ;jp.mqnlrfs({6^:$..1tt]-.    ",
"   ujvkwxnyzAs(63:a-. %%-..     ",
"  .qBCDEpBFEGs|3^_=%.   .       ",
"  .HIeEwjdJKj'3a_:]%            ",
"  .c8Lgjdd,|{|3}!:;.            ",
"  .M8NOIdd,({^#%~a$.            ",
"  .5It>(>^<PpQi@_t-.            ",
"   1R+STTfUVVDs_:W..            ",
"   %X7YADAAEEZt^_$.             ",
"    ;<BvGEECjt__1..             ",
"    .$#7Pss#_^_1%.              ",
"      +1=^^_!]+..               ",
"       .%+$++...                ",
"          ...                   ",
"                                "};
